<svg xmlns="http://www.w3.org/2000/svg" viewBox="0 0 635.23 90.4" xmlns:v="https://vecta.io/nano"><path d="M121.43 51.2v30.1h-18.4v-27c0-7.6-3.3-10.8-8.6-10.8-5.9 0-10.5 3.7-10.5 12.4v25.4h-18.6V28.7h17.6v5.7c4.2-4.4 10.1-6.6 16.7-6.6 12.3.1 21.8 7.1 21.8 23.4m7.3 25.6l5.5-12.6c4.9 3 11.9 4.9 18.3 4.9 6.2 0 8.3-1.4 8.3-3.6 0-7.1-31.1 1-31.1-20.1 0-9.9 9.1-17.5 25.6-17.5 7.4 0 15.5 1.6 20.8 4.5l-5.5 12.5c-5.2-2.9-10.5-3.9-15.1-3.9-6.2 0-8.4 1.7-8.4 3.7 0 7.3 31-.6 31 20.3 0 9.7-8.9 17.3-26 17.3-9-.1-18.2-2.3-23.4-5.5m93.6 2.4c-3.2 2-8 3-12.8 3-13.5 0-21.4-6.6-21.4-20.1V44.5h-7.6V30.7h7.7V17h18.4v13.7h12v13.8h-12V62c0 3.9 2.2 6 5.5 6 2 0 4.1-.6 5.6-1.6l4.6 12.8zm5-66.1c0-5.5 4.5-9.8 11.3-9.8s11.3 4 11.3 9.5c0 5.8-4.5 10.1-11.3 10.1s-11.3-4.3-11.3-9.8m2.1 15.6h18.4v52.6h-18.4V28.7zm86.4 22.5v30.1h-18.4v-27c0-7.6-3.3-10.8-8.6-10.8-5.9 0-10.5 3.7-10.5 12.4v25.4h-18.4V28.7h17.6v5.7c4.2-4.4 10.1-6.6 16.7-6.6 12.2.1 21.6 7.1 21.6 23.4m9 3.7c0-15.8 12.5-27.1 30.2-27.1 11.9 0 21.1 5.3 24.7 14.5l-14.3 7.3c-2.5-4.9-6.2-7.1-10.5-7.1-6.4 0-11.5 4.5-11.5 12.4 0 8.2 5 12.6 11.5 12.6 4.3 0 8-2.1 10.5-7.1l14.3 7.3c-3.6 9.1-12.7 14.5-24.7 14.5-17.7 0-30.2-11.2-30.2-27.3m99 24.3c-3.2 2-8 3-12.8 3-13.5 0-21.4-6.6-21.4-20.1V44.5h-7.7V30.7h7.7V17h18.4v13.7h12v13.8h-12V62c0 3.9 2.2 6 5.5 6 2 0 4.1-.6 5.6-1.6l4.7 12.8z" fill="#2c333a"/><g fill="#00838f"><path d="M496.43 13.4v67.9h-19.2V54.8h-26.2v26.5h-19.2V13.4h19.2v25.5h26.2V13.4zm68.1 15.3v52.6h-17.6v-5.6c-4 4.4-9.6 6.5-15.6 6.5-12.9 0-22.3-7.4-22.3-24.1V28.7h18.4v26.4c0 8.2 3.2 11.4 8.7 11.4 5.4 0 9.9-3.6 9.9-12.4V28.7h18.5z"/><path d="M635.23 54.9c0 16.8-11.6 27.3-25.8 27.3-6.9 0-12-1.9-15.5-6.1v5.2h-17.6v-72h18.4v24c3.6-3.7 8.5-5.4 14.7-5.4 14.3 0 25.8 10.3 25.8 27m-18.6 0c0-8-4.9-12.4-11.1-12.4s-11.1 4.5-11.1 12.4c0 8.1 4.9 12.6 11.1 12.6 6.2.1 11.1-4.5 11.1-12.6M12.1 34.4a16.64 16.64 0 0 1-.33-3.3c0-9.02 7.34-16.36 16.36-16.36a15.97 15.97 0 0 1 3.16.31l-1.15 5.9a10.27 10.27 0 0 0-2-.19c-5.7 0-10.36 4.65-10.36 10.36a10.36 10.36 0 0 0 .21 2.09l-5.9 1.2z"/><path d="M28.08 58.5C13 58.5.73 46.24.73 31.16S13 3.8 28.08 3.8s27.35 12.27 27.35 27.35S43.16 58.5 28.08 58.5zm0-48.7C16.3 9.8 6.73 19.4 6.73 31.16S16.3 52.5 28.08 52.5s21.35-9.58 21.35-21.35S39.85 9.8 28.08 9.8z"/></g><path d="M15.73 40.5h24.7v39.3h-24.7z" fill="#2c333a"/></svg>